<?xml version="1.0" encoding="UTF-8" standalone="no"?>
<!-- Created with Inkscape (http://www.inkscape.org/) -->

<svg
   version="1.1"
   id="svg1"
   width="521.04071"
   height="576.24286"
   viewBox="0 0 521.04072 576.24287"
   sodipodi:docname="devlabs-logo-full-dark.svg"
   inkscape:version="1.4.3 (0d15f75, 2025-12-25)"
   xml:space="preserve"
   xmlns:inkscape="http://www.inkscape.org/namespaces/inkscape"
   xmlns:sodipodi="http://sodipodi.sourceforge.net/DTD/sodipodi-0.dtd"
   xmlns:xlink="http://www.w3.org/1999/xlink"
   xmlns="http://www.w3.org/2000/svg"
   xmlns:svg="http://www.w3.org/2000/svg"><defs
     id="defs1"><inkscape:path-effect
       effect="fillet_chamfer"
       id="path-effect6"
       is_visible="true"
       lpeversion="1"
       nodesatellites_param="F,0,0,1,0,2,0,1 @ F,0,0,1,0,2,0,1 @ F,0,0,1,0,2,0,1 @ F,0,0,1,0,2,0,1"
       radius="2"
       unit="px"
       method="auto"
       mode="F"
       chamfer_steps="1"
       flexible="false"
       use_knot_distance="true"
       apply_no_radius="true"
       apply_with_radius="true"
       only_selected="false"
       hide_knots="false" /><inkscape:path-effect
       effect="fillet_chamfer"
       id="path-effect1"
       is_visible="true"
       lpeversion="1"
       nodesatellites_param="F,0,0,1,0,2,0,1 @ F,0,0,1,0,2,0,1 @ F,0,0,1,0,2,0,1 @ F,0,0,1,0,2,0,1"
       radius="2"
       unit="px"
       method="auto"
       mode="F"
       chamfer_steps="1"
       flexible="false"
       use_knot_distance="true"
       apply_no_radius="true"
       apply_with_radius="true"
       only_selected="false"
       hide_knots="false" /><linearGradient
       id="linearGradient3"
       inkscape:collect="always"><stop
         style="stop-color:#93e27d;stop-opacity:1;"
         offset="0"
         id="stop3" /><stop
         style="stop-color:#5dc141;stop-opacity:1"
         offset="1"
         id="stop4" /></linearGradient><linearGradient
       id="linearGradient1"
       inkscape:collect="always"><stop
         style="stop-color:#93e27d;stop-opacity:1;"
         offset="0"
         id="stop1" /><stop
         style="stop-color:#47b328;stop-opacity:1;"
         offset="1"
         id="stop2" /></linearGradient><linearGradient
       inkscape:collect="always"
       xlink:href="#linearGradient1"
       id="linearGradient2"
       x1="160.53247"
       y1="62.925716"
       x2="125.22717"
       y2="122.53651"
       gradientUnits="userSpaceOnUse" /><linearGradient
       inkscape:collect="always"
       xlink:href="#linearGradient3"
       id="linearGradient4"
       x1="188.62946"
       y1="107.46889"
       x2="171.4787"
       y2="136.32639"
       gradientUnits="userSpaceOnUse" /></defs><sodipodi:namedview
     id="namedview1"
     pagecolor="#ffffff"
     bordercolor="#000000"
     borderopacity="0.25"
     inkscape:showpageshadow="2"
     inkscape:pageopacity="0.0"
     inkscape:pagecheckerboard="0"
     inkscape:deskcolor="#d1d1d1"
     showgrid="false"
     inkscape:zoom="0.6398792"
     inkscape:cx="104.70726"
     inkscape:cy="210.19592"
     inkscape:window-width="1920"
     inkscape:window-height="1009"
     inkscape:window-x="2648"
     inkscape:window-y="-8"
     inkscape:window-maximized="1"
     inkscape:current-layer="layer1"><inkscape:page
       x="0"
       y="0"
       width="521.04071"
       height="576.24286"
       id="page2"
       margin="0"
       bleed="0" /></sodipodi:namedview><g
     inkscape:groupmode="layer"
     id="layer1"
     inkscape:label="Image 1"
     transform="translate(103.21493,141.63385)"><path
       style="fill:#ffffff;stroke-width:1.92056"
       d="m -103.21494,309.02491 c 0,-0.24714 8.288958,-17.17615 18.419903,-37.62001 10.130926,-20.44386 19.945632,-40.35022 21.810417,-44.23635 l 3.390534,-7.0657 h 9.414251 c 6.624581,0 9.635114,0.28294 10.159638,0.95483 0.971418,1.24433 41.6938606,81.80566 43.2452106,85.55213 l 1.186136,2.86447 H -5.7488895 -15.908914 l -2.548389,-5.53796 c -1.401623,-3.04589 -8.43004,-17.56875 -15.618709,-32.27303 -7.188688,-14.70427 -13.524821,-27.85218 -14.080323,-29.21759 -0.936868,-2.30278 -2.352377,-3.38129 -2.352377,-1.79232 0,0.73342 -18.144647,38.67809 -27.521581,57.55399 l -5.597025,11.26691 h -9.79381 c -5.38659,0 -9.793812,-0.20221 -9.793812,-0.44937 z m 166.567118,-0.68383 c -6.723721,-1.25597 -11.588995,-3.00627 -15.491646,-5.57321 -3.407973,-2.24156 -5.94238,-8.16372 -5.94238,-13.88562 v -3.72984 l 5.156046,-0.47501 c 2.83582,-0.26127 6.771235,-0.66221 8.745358,-0.89097 3.533559,-0.4095 3.599318,-0.37725 4.234927,2.07565 0.355111,1.37037 1.600286,3.20481 2.767083,4.07655 2.020581,1.50964 3.21876,1.59555 25.205568,1.80698 23.064726,0.22179 23.086356,0.22048 25.725676,-1.55342 3.03669,-2.04098 4.29333,-5.66202 3.47631,-10.01714 -0.98623,-5.25697 -1.64621,-5.39859 -27.533546,-5.90775 -26.508871,-0.52139 -31.325267,-1.27275 -38.326489,-5.97904 -5.720479,-3.84536 -8.324372,-7.89663 -9.480356,-14.75004 -3.036499,-18.00249 4.938139,-29.70755 22.270006,-32.68762 8.103758,-1.39336 49.442775,-0.61081 55.291045,1.04669 6.18334,1.75245 10.32312,4.72561 12.39874,8.90467 1.91693,3.85951 3.58077,11.4514 2.6952,12.29781 -0.31935,0.30523 -4.36172,0.78088 -8.98307,1.05698 l -8.40244,0.50203 -1.14578,-2.49553 c -1.83767,-4.00245 -4.01687,-4.36872 -26.353116,-4.42927 -26.952578,-0.0732 -29.037056,0.59902 -29.012953,9.35487 0.02516,9.14103 1.6918,9.67921 29.974773,9.67921 11.579406,0 22.503296,0.36402 25.060036,0.83509 9.06597,1.67041 16.22797,6.70969 19.28836,13.57161 1.82758,4.09776 1.76386,18.34433 -0.10371,23.18429 -2.04086,5.28902 -8.38103,10.80266 -14.88542,12.94489 -4.74253,1.56195 -6.77744,1.69927 -28.029526,1.89146 -17.077805,0.15441 -24.363539,-0.0632 -28.598715,-0.85432 z m 113.057732,0.56032 c 0.029,-0.31511 9.91371,-20.33773 21.96604,-44.49476 l 21.91336,-43.92185 9.6485,-0.21316 9.6485,-0.21314 1.90222,3.26858 c 3.26748,5.61448 43.33659,84.54543 43.33659,85.36745 0,0.49043 -3.68232,0.77976 -9.92423,0.77976 h -9.92422 l -17.32837,-34.7727 c -9.5306,-19.125 -17.5569,-34.50719 -17.83623,-34.18268 -0.2793,0.32454 -3.28648,6.43359 -6.68258,13.57566 -3.3961,7.14208 -10.83594,22.52427 -16.53299,34.18266 l -10.35826,21.19706 h -9.94051 c -5.46727,0 -9.9168,-0.25779 -9.88782,-0.57288 z m 149.66356,-44.11282 v -44.68573 h 32.32369 c 20.05472,0 34.03241,0.31588 36.82545,0.8322 8.74525,1.61665 15.47446,6.64793 18.80895,14.06304 2.29232,5.09754 2.5149,17.79771 0.4173,23.80987 -2.98933,8.56797 -10.32834,14.03283 -21.32088,15.8762 l -2.83855,0.47599 10.35194,12.76489 c 5.69358,7.02068 11.88926,14.74136 13.76818,17.15706 l 3.41621,4.39218 h -10.986 -10.98599 L 382.99544,293.2423 c -7.07209,-8.9276 -13.3856,-16.66167 -14.03005,-17.18683 -0.81577,-0.66478 -4.49184,-0.95482 -12.10164,-0.95482 h -10.92996 l -0.13617,6.68377 c -0.0749,3.67607 -0.087,7.37124 -0.0267,8.21148 0.0601,0.84025 -0.0945,5.56661 -0.3439,10.50306 l -0.45331,8.97532 h -9.45009 -9.45008 z m 66.26472,-7.09257 c 3.16411,-1.80732 4.18441,-4.33193 4.09607,-10.13521 -0.10045,-6.59796 -0.83549,-8.08213 -4.92157,-9.93737 -2.87532,-1.3055 -5.23485,-1.44762 -24.28465,-1.46277 l -21.09989,-0.0173 -0.39093,4.01026 c -0.21501,2.20565 -0.2075,7.38461 0.0173,11.5088 l 0.40762,7.49853 22.22898,-0.24188 c 16.32791,-0.17765 22.68523,-0.50249 23.94765,-1.22357 z"
       id="path3"
       sodipodi:nodetypes="ssscssscccssssscssssscssssssssssssssscssssssssssssscccssscsssscssccssssscsscccssscscscccccssccsccscc"
       inkscape:export-filename="devlabs-logo-full.svg"
       inkscape:export-xdpi="96"
       inkscape:export-ydpi="96" /><g
       id="g3"
       transform="translate(-13.260764,-6)"><path
         style="fill:url(#linearGradient2);fill-opacity:1;stroke:none;stroke-width:9.44882;stroke-linecap:round;stroke-miterlimit:2.1;paint-order:normal"
         d="M 156.3473,32.722875 98.091359,139.01443 a 1.1845376,1.1845376 59.363065 0 0 1.038753,1.75385 h 28.728628 a 3.4254926,3.4254926 149.72115 0 0 2.98309,-1.7417 l 42.72774,-75.698757 a 3.5471613,3.5471613 90.026651 0 0 0.002,-3.484318 L 158.29002,32.711637 a 1.1112465,1.1112465 179.66856 0 0 -1.94272,0.01124 z"
         id="path1"
         sodipodi:nodetypes="ccccc"
         inkscape:export-filename="..\Web Apps\personal-website\public\devlabs-logo.svg"
         inkscape:export-xdpi="96"
         inkscape:export-ydpi="96"
         inkscape:path-effect="#path-effect1"
         inkscape:original-d="M 157.30855,30.969021 97.130112,140.76828 h 32.728628 l 44.69392,-79.182159 z"
         transform="matrix(2.9927756,0,0,2.9927756,-300.21363,-237.83877)" /><path
         style="fill:url(#linearGradient4);fill-opacity:1;stroke:none;stroke-width:9.44882;stroke-linecap:round;stroke-miterlimit:2.1;paint-order:normal"
         d="m 185.8903,87.612323 -15.63686,27.833597 a 3.5694537,3.5694537 90.064849 0 0 -0.004,3.48956 l 11.42171,20.43883 a 3.4087464,3.4087464 30.401255 0 0 2.97564,1.74589 h 30.84015 a 1.1782641,1.1782641 120.5037 0 0 1.03061,-1.74936 L 187.83928,87.618014 a 1.1159256,1.1159256 0.16729648 0 0 -1.94898,-0.0057 z"
         id="path2"
         sodipodi:nodetypes="ccccc"
         inkscape:path-effect="#path-effect6"
         inkscape:original-d="m 186.86989,85.868649 -17.59604,31.320941 13.37299,23.93061 h 34.84015 z"
         transform="matrix(2.9927756,0,0,2.9927756,-300.21363,-237.83877)" /></g><text
       xml:space="preserve"
       style="font-style:normal;font-variant:normal;font-weight:normal;font-stretch:normal;font-size:48.649px;font-family:Arial;-inkscape-font-specification:'Arial, Normal';font-variant-ligatures:normal;font-variant-caps:normal;font-variant-numeric:normal;font-variant-east-asian:normal;letter-spacing:9px;writing-mode:lr-tb;direction:ltr;fill:#5abf3e;fill-opacity:1;stroke-width:4.89671;stroke-linecap:round;stroke-miterlimit:2.1"
       x="-7.5903864"
       y="416.32108"
       id="text3"
       transform="scale(1.0962872,0.91216974)"><tspan
         sodipodi:role="line"
         id="tspan3"
         x="-7.5903864"
         y="416.32108"
         style="font-style:normal;font-variant:normal;font-weight:normal;font-stretch:normal;font-size:48.649px;font-family:Arial;-inkscape-font-specification:'Arial, Normal';font-variant-ligatures:normal;font-variant-caps:normal;font-variant-numeric:normal;font-variant-east-asian:normal;letter-spacing:9px;fill:#5abf3e;fill-opacity:1;stroke-width:4.89671">DEV LABS</tspan></text><text
       xml:space="preserve"
       style="font-style:normal;font-variant:normal;font-weight:normal;font-stretch:normal;font-size:21.3333px;font-family:Arial;-inkscape-font-specification:'Arial, Normal';font-variant-ligatures:normal;font-variant-caps:normal;font-variant-numeric:normal;font-variant-east-asian:normal;letter-spacing:8px;word-spacing:14.58px;writing-mode:lr-tb;direction:ltr;fill:#b3b3b3;fill-opacity:1;stroke-width:5.21557;stroke-linecap:round;stroke-miterlimit:2.1"
       x="-85.95192"
       y="447.06708"
       id="text3-9"
       transform="scale(1.0292642,0.97156785)"><tspan
         sodipodi:role="line"
         id="tspan3-2"
         x="-85.95192"
         y="447.06708"
         style="font-style:normal;font-variant:normal;font-weight:normal;font-stretch:normal;font-size:21.3333px;font-family:Arial;-inkscape-font-specification:'Arial, Normal';font-variant-ligatures:normal;font-variant-caps:normal;font-variant-numeric:normal;font-variant-east-asian:normal;letter-spacing:8px;word-spacing:14.58px;fill:#b3b3b3;fill-opacity:1;stroke:none;stroke-width:5.21557;stroke-opacity:1">BUILD • LAUNCH • GROW</tspan></text><g
       id="g4"
       transform="translate(0.33013256,276.05561)"><path
         style="fill:none;fill-opacity:1;stroke:#5abf3e;stroke-width:2;stroke-linecap:round;stroke-miterlimit:2.1;stroke-dasharray:none;stroke-opacity:1"
         d="m -95.992961,86.632964 h 70.724024"
         id="path4"
         sodipodi:nodetypes="cc" /><path
         style="fill:none;fill-opacity:1;stroke:#5abf3e;stroke-width:2;stroke-linecap:round;stroke-miterlimit:2.1;stroke-dasharray:none;stroke-opacity:1"
         d="m 339.2195,86.632964 h 70.72402"
         id="path4-7"
         sodipodi:nodetypes="cc" /></g></g></svg>
